<?xml version="1.0" encoding="UTF-8" standalone="no"?>
<!-- Created with Inkscape (http://www.inkscape.org/) -->

<svg
   width="800"
   height="800"
   viewBox="0 0 211.66667 211.66667"
   version="1.1"
   id="svg5"
   inkscape:version="1.1.2 (0a00cf5339, 2022-02-04)"
   sodipodi:docname="2022-09-29-KEINE.svg"
   xmlns:inkscape="http://www.inkscape.org/namespaces/inkscape"
   xmlns:sodipodi="http://sodipodi.sourceforge.net/DTD/sodipodi-0.dtd"
   xmlns="http://www.w3.org/2000/svg"
   xmlns:svg="http://www.w3.org/2000/svg">
  <sodipodi:namedview
     id="namedview7"
     pagecolor="#ffffff"
     bordercolor="#666666"
     borderopacity="1.0"
     inkscape:pageshadow="2"
     inkscape:pageopacity="0.0"
     inkscape:pagecheckerboard="0"
     inkscape:document-units="mm"
     showgrid="false"
     fit-margin-top="0"
     fit-margin-left="0"
     fit-margin-right="0"
     fit-margin-bottom="0"
     units="px"
     inkscape:zoom="0.77504209"
     inkscape:cx="615.45045"
     inkscape:cy="356.10969"
     inkscape:window-width="1920"
     inkscape:window-height="1044"
     inkscape:window-x="0"
     inkscape:window-y="0"
     inkscape:window-maximized="1"
     inkscape:current-layer="layer1" />
  <defs
     id="defs2" />
  <g
     inkscape:label="Ebene 1"
     inkscape:groupmode="layer"
     id="layer1"
     transform="translate(-7.6414414,-119.21267)">
    <path
       style="fill:#000000;stroke-width:0.352778"
       d="m 19.381837,253.81315 c -1.3296,-0.73544 -2.24147,-1.71426 -2.76558,-2.96862 -0.41535,-0.99408 -0.50004,-5.3725 -0.50004,-25.85198 0,-24.04352 0.0178,-24.69301 0.71635,-26.17918 1.22315,-2.60213 4.31736,-3.71583 7.09703,-2.5544 2.88534,1.20557 3.12273,2.23086 3.12273,13.48732 0,6.51931 0.11578,9.29596 0.38763,9.29596 0.4164,0 0.7617,-0.35017 5.08042,-5.15221 1.55223,-1.72594 3.627051,-4.01119 4.610721,-5.07834 0.98367,-1.06715 2.41242,-2.64297 3.175,-3.50181 0.76258,-0.85884 1.62463,-1.81811 1.91567,-2.13171 0.29104,-0.3136 1.6877,-1.86286 3.10367,-3.4428 2.1138,-2.35857 2.89281,-2.97835 4.35321,-3.46342 1.3035,-0.43295 1.88334,-0.48615 2.17036,-0.19914 0.21541,0.21541 0.64638,0.39166 0.95771,0.39166 0.91493,0 3.02742,2.18337 3.49858,3.61597 0.60432,1.83751 -0.006,3.50846 -2.093,5.73264 -0.91041,0.97014 -2.27416,2.47497 -3.03055,3.34406 -0.75639,0.8691 -2.50009,2.7741 -3.87488,4.23334 -2.58056,2.73906 -4.92762,5.36743 -5.75565,6.44551 -0.32797,0.42702 -0.36367,0.75333 -0.11579,1.05834 0.19711,0.24253 0.67429,0.9966 1.06041,1.67569 0.60857,1.07034 2.32928,3.8804 4.84121,7.90614 0.38805,0.62192 1.17418,1.91527 1.74695,2.87411 0.57277,0.95885 1.12839,1.82274 1.23472,1.91975 0.10633,0.097 0.4067,0.55533 0.66748,1.01847 0.26077,0.46315 0.77586,1.37927 1.14462,2.03583 0.36877,0.65655 1.70321,2.78517 2.96544,4.73025 1.26223,1.94509 2.29496,3.75803 2.29496,4.02878 0,0.27074 0.15875,0.59037 0.35277,0.71028 0.94835,0.58611 0.006,3.29185 -1.66211,4.77169 -2.11346,1.87507 -3.67538,2.20573 -5.68457,1.20341 -1.42888,-0.71282 -2.63005,-2.19444 -5.04946,-6.22843 -1.08013,-1.80094 -2.75216,-4.54445 -3.71563,-6.09667 -0.96346,-1.55222 -1.97902,-3.21909 -2.25679,-3.70416 -0.27778,-0.48507 -0.58442,-0.96132 -0.68144,-1.05834 -0.34894,-0.34894 -1.4587,-2.30596 -1.65039,-2.91041 -0.10768,-0.33955 -0.33602,-0.61736 -0.50742,-0.61736 -0.17139,0 -0.31163,-0.15567 -0.31163,-0.34593 0,-0.52849 -2.449011,-4.24019 -2.797711,-4.24019 -0.16862,0 -1.31468,1.06174 -2.5468,2.35941 -1.23212,1.29768 -2.5974,2.73365 -3.03396,3.19104 -0.7701,0.80685 -0.79456,1.05451 -0.82086,8.31212 -0.0322,8.89219 -0.25231,9.96228 -2.27624,11.06802 -1.57205,0.85886 -4.11443,1.00822 -5.36714,0.31531 z m 48.063541,0.034 c -1.25244,-0.47073 -2.64479,-1.92842 -2.6454,-2.76954 -2.4e-4,-0.3281 -0.15918,-0.69465 -0.35321,-0.81457 -0.22981,-0.14203 -0.35092,-8.78793 -0.34746,-24.80346 0.006,-26.10093 0.0223,-26.38119 1.67446,-28.09774 1.3347,-1.38675 3.35163,-1.60296 14.95311,-1.60296 11.46155,0 13.07949,0.17151 14.67614,1.55575 0.43656,0.37848 0.79375,0.96765 0.79375,1.30927 0,0.34161 0.15875,0.71923 0.35278,0.83914 0.19403,0.11992 0.35278,0.83429 0.35278,1.5875 0,0.75321 -0.15875,1.46759 -0.35278,1.5875 -0.19403,0.11992 -0.35278,0.49646 -0.35278,0.83677 0,0.69565 -1.57162,2.27862 -2.64583,2.66492 -0.38806,0.13955 -4.57363,0.23801 -9.30126,0.2188 -6.00116,-0.0244 -8.74311,0.0874 -9.08403,0.37035 -0.37697,0.31285 -0.48832,1.6358 -0.48832,5.80128 0,2.96781 0.0963,5.64712 0.21413,5.95403 0.18618,0.48518 1.21604,0.55802 7.88992,0.55802 7.2498,0 7.72777,0.0409 8.61236,0.7367 1.29642,1.01976 1.98081,2.48743 1.98081,4.24781 0,2.40638 -0.64676,3.69502 -2.26729,4.51744 -1.29697,0.65823 -2.15824,0.73779 -8.84521,0.81711 l -7.40833,0.0879 -0.10039,6.35 c -0.0552,3.4925 -0.0125,6.70719 0.0949,7.14375 0.19527,0.79363 0.19653,0.79375 8.07433,0.79375 9.72152,0 11.87181,0.19837 12.97422,1.1969 1.31528,1.19134 1.71108,2.1811 1.71108,4.27878 0,2.44536 -0.69044,3.56392 -2.74292,4.44371 -1.42486,0.61077 -2.54248,0.66094 -13.95508,0.62641 -8.25661,-0.025 -12.76015,-0.17057 -13.4645,-0.4353 z m 39.999802,-0.30085 c -2.53377,-1.41341 -2.42897,-0.17105 -2.42897,-28.79312 0,-23.63078 0.0477,-25.73136 0.60293,-26.53456 0.90956,-1.31585 1.40854,-1.75419 1.99689,-1.75419 0.29345,0 0.63166,-0.15875 0.75157,-0.35278 0.34797,-0.56301 3.07631,-0.35884 4.23334,0.3168 0.58208,0.3399 1.41552,1.14553 1.85208,1.79027 l 0.79375,1.17227 v 25.48114 c 0,28.55615 0.10995,27.28225 -2.47368,28.66131 -1.79389,0.95753 -3.62651,0.96195 -5.32791,0.0128 z m 19.06808,0.21938 c -0.49739,-0.2637 -1.21177,-0.81914 -1.5875,-1.2343 -0.66285,-0.73239 -0.68316,-1.53771 -0.68316,-27.08797 v -26.33315 l 0.80247,-1.12504 c 0.92446,-1.29606 2.58382,-2.22635 3.97115,-2.22635 2.46638,0 4.65104,1.74536 7.50675,5.99722 0.97736,1.45521 1.90818,2.69875 2.06847,2.76343 0.16029,0.0647 0.29144,0.27861 0.29144,0.47541 0,0.19679 1.32528,2.287 2.94506,4.6449 2.80314,4.08051 7.89988,11.60718 12.31763,18.19021 1.11844,1.66662 2.26937,3.30985 2.55763,3.65161 0.28827,0.34177 0.52412,0.77833 0.52412,0.97014 0,0.30638 0.57586,0.49822 0.78209,0.26055 0.0421,-0.0485 0.16115,-7.73762 0.26458,-17.08693 l 0.18806,-16.99874 0.98767,-1.03054 c 1.42803,-1.48999 3.43632,-2.01493 5.44376,-1.42293 2.08228,0.61408 3.18437,1.76 3.44843,3.58559 0.1168,0.80747 0.16411,12.73939 0.10514,26.51536 -0.1014,23.68635 -0.14268,25.09948 -0.75971,26.00904 -1.38364,2.03961 -4.41882,2.62302 -6.83331,1.31345 -1.48197,-0.80378 -4.33226,-3.73682 -4.33226,-4.45803 0,-0.25469 -0.12453,-0.46307 -0.27672,-0.46307 -0.15219,0 -0.55613,-0.47302 -0.89765,-1.05116 -0.69835,-1.18221 -7.68313,-11.37513 -7.98247,-11.64884 -0.10609,-0.097 -0.41791,-0.61295 -0.69292,-1.14653 -0.27501,-0.53358 -0.63195,-0.97014 -0.79319,-0.97014 -0.16124,0 -0.29316,-0.16786 -0.29316,-0.37302 0,-0.44922 -3.15888,-5.04558 -3.58241,-5.21263 -0.16398,-0.0647 -0.29815,-0.31788 -0.29815,-0.56268 0,-0.2448 -0.3175,-0.73243 -0.70555,-1.08361 -0.38806,-0.35119 -0.70556,-0.82744 -0.70556,-1.05834 0,-0.23089 -0.3175,-0.70714 -0.70555,-1.05833 -0.38806,-0.35119 -0.70556,-0.82744 -0.70556,-1.05833 0,-0.2309 -0.3175,-0.70715 -0.70556,-1.05834 -0.38805,-0.35118 -0.70555,-0.76466 -0.70555,-0.91883 0,-0.15418 -0.59042,-1.07483 -1.31204,-2.0459 -0.87738,-1.18068 -1.40151,-1.62483 -1.5821,-1.34071 -0.14853,0.23369 -0.27308,7.72739 -0.27678,16.65267 -0.006,15.34902 -0.0432,16.28765 -0.68096,17.3335 -0.37083,0.60814 -1.18837,1.36221 -1.81677,1.67569 -1.35894,0.67793 -4.02582,0.68583 -5.28986,0.0157 z m 53.63539,0.006 c -1.58632,-0.84222 -2.55857,-2.19029 -2.84367,-3.94286 -0.15056,-0.92552 -0.24494,-12.55714 -0.20972,-25.84804 0.0595,-22.4634 0.10861,-24.25485 0.69733,-25.43712 1.26726,-2.54493 2.63212,-2.78604 15.73529,-2.77974 15.13664,0.007 15.91055,0.27542 15.91055,5.5128 0,1.95246 -0.14686,2.54529 -0.86322,3.48449 -1.15742,1.51745 -2.15856,1.65137 -12.01317,1.60695 -4.46263,-0.0201 -8.31629,0.0966 -8.56367,0.25943 -0.34173,0.22489 -0.42648,1.73043 -0.35277,6.26696 l 0.097,5.97095 7.71648,0.0952 c 7.14493,0.0881 7.79221,0.14912 8.7388,0.82315 2.66105,1.89483 2.70967,6.94419 0.0835,8.66741 -0.85289,0.55963 -2.01004,0.6681 -8.76072,0.82119 l -7.77803,0.17639 -0.0954,7.10751 -0.0954,7.10751 10.03569,0.12444 c 9.46191,0.11731 10.09106,0.16578 11.00421,0.84769 0.53269,0.39779 1.0752,0.95342 1.20556,1.23472 0.13037,0.2813 0.42046,0.86649 0.64464,1.30043 1.11806,2.16408 -0.2559,5.3136 -2.89164,6.62847 -1.45989,0.72829 -26.02446,0.70325 -27.40164,-0.0279 z"
       id="path67" />
  </g>
</svg>
